# xmcd
#
# Track frame offsets:
#	150
#	13125
#	26850
#	39375
#	54450
#	69900
#	86025
#	100275
#	115275
#	130650
#	146775
#	159750
#	173475
#	186000
#	201075
#	216525
#	232650
#	246900
#	261900
#	277275
#
# Disc length: 3912 seconds
#
# Revision: 1
# Processed by: cddbd v1.5.2PL0 Copyright (c) Steve Scherf et al.
# Submitted via: audiograbber 1.83.01
#
DISCID=200f4614
DTITLE=Country Hit List - Chl9803
DYEAR=1998
DGENRE=Karaoke
TTITLE0=Clay  walker  - Then What (Vocal)
TTITLE1=George Strait  - Round about Way (Vocal)
TTITLE2=Garth Brooks - She's Gonna make It (Vocal)
TTITLE3=Clint Black - Nothin' But The Taillights (Vocal)
TTITLE4=Allan jackson  - A house With No Curtins (Vocal)
TTITLE5=Mavericks - To Be With You (Vocal)
TTITLE6=David Lee Murphy - Just Don't Wait Around (Vocal)
TTITLE7=Mark Chesnutt - It's Not Over (Vocal)
TTITLE8=Daryle Singletary - The Note (Vocal)
TTITLE9=Neil McCoy - If You Can't Be Good (Vocal)
TTITLE10=Clay  walker  - Then What
TTITLE11=George Strait  - Round about Way
TTITLE12=Garth Brooks - She's Gonna make It
TTITLE13=Clint Black - Nothin' But The Taillights
TTITLE14=Allan jackson  - A house With No Curtins
TTITLE15=Mavericks - To Be With You
TTITLE16=David Lee Murphy - Just Don't Wait Around
TTITLE17=Mark Chesnutt - It's Not Over
TTITLE18=Daryle Singletary - The Note
TTITLE19=Neil McCoy - If You Can't Be Good
EXTD=
EXTT0=
EXTT1=
EXTT2=
EXTT3=
EXTT4=
EXTT5=
EXTT6=
EXTT7=
EXTT8=
EXTT9=
EXTT10=
EXTT11=
EXTT12=
EXTT13=
EXTT14=
EXTT15=
EXTT16=
EXTT17=
EXTT18=
EXTT19=
PLAYORDER=
